<mxfile host="app.diagrams.net" modified="2020-10-26T09:18:45.256Z" agent="5.0 (X11)" etag="iSrp0EtPj4FC2ECuqclH" version="13.8.2" type="github">
  <diagram name="Page-1" id="7e0a89b8-554c-2b80-1dc8-d5c74ca68de4">
    <mxGraphModel dx="1125" dy="615" grid="1" gridSize="10" guides="1" tooltips="1" connect="1" arrows="1" fold="1" page="1" pageScale="1" pageWidth="1100" pageHeight="850" background="#ffffff" math="0" shadow="0">
      <root>
        <mxCell id="0" />
        <mxCell id="1" parent="0" />
        <mxCell id="AjZ5n-M7ejd30T08TzAp-1" value="&lt;font style=&quot;font-size: 26px&quot;&gt;LC7805&lt;/font&gt;" style="rounded=0;whiteSpace=wrap;html=1;" parent="1" vertex="1">
          <mxGeometry x="420" y="290" width="120" height="60" as="geometry" />
        </mxCell>
        <mxCell id="AjZ5n-M7ejd30T08TzAp-2" value="" style="endArrow=none;html=1;entryX=0;entryY=0.5;entryDx=0;entryDy=0;" parent="1" target="AjZ5n-M7ejd30T08TzAp-1" edge="1">
          <mxGeometry width="50" height="50" relative="1" as="geometry">
            <mxPoint x="200" y="320" as="sourcePoint" />
            <mxPoint x="470" y="420" as="targetPoint" />
          </mxGeometry>
        </mxCell>
        <mxCell id="AjZ5n-M7ejd30T08TzAp-3" value="&lt;div&gt;&lt;font style=&quot;font-size: 23px&quot;&gt;Vin&lt;/font&gt;&lt;/div&gt;&lt;div&gt;&lt;font style=&quot;font-size: 23px&quot;&gt;9v&lt;br&gt;&lt;/font&gt;&lt;/div&gt;" style="text;html=1;align=center;verticalAlign=middle;resizable=0;points=[];autosize=1;" parent="1" vertex="1">
          <mxGeometry x="150" y="250" width="50" height="40" as="geometry" />
        </mxCell>
        <mxCell id="AjZ5n-M7ejd30T08TzAp-4" value="" style="endArrow=none;html=1;exitX=1;exitY=0.5;exitDx=0;exitDy=0;" parent="1" source="AjZ5n-M7ejd30T08TzAp-1" edge="1">
          <mxGeometry width="50" height="50" relative="1" as="geometry">
            <mxPoint x="630" y="460" as="sourcePoint" />
            <mxPoint x="760" y="320" as="targetPoint" />
          </mxGeometry>
        </mxCell>
        <mxCell id="AjZ5n-M7ejd30T08TzAp-5" value="&lt;div&gt;&lt;font style=&quot;font-size: 23px&quot;&gt;Vout&lt;/font&gt;&lt;/div&gt;&lt;div&gt;&lt;font style=&quot;font-size: 23px&quot;&gt;5v&lt;br&gt;&lt;/font&gt;&lt;/div&gt;" style="text;html=1;align=center;verticalAlign=middle;resizable=0;points=[];autosize=1;" parent="1" vertex="1">
          <mxGeometry x="730" y="250" width="60" height="40" as="geometry" />
        </mxCell>
        <mxCell id="AjZ5n-M7ejd30T08TzAp-8" value="" style="pointerEvents=1;verticalLabelPosition=bottom;shadow=0;dashed=0;align=center;html=1;verticalAlign=top;shape=mxgraph.electrical.capacitors.capacitor_1;rotation=90;" parent="1" vertex="1">
          <mxGeometry x="590" y="370" width="100" height="60" as="geometry" />
        </mxCell>
        <mxCell id="AjZ5n-M7ejd30T08TzAp-9" value="" style="pointerEvents=1;verticalLabelPosition=bottom;shadow=0;dashed=0;align=center;html=1;verticalAlign=top;shape=mxgraph.electrical.signal_sources.protective_earth;" parent="1" vertex="1">
          <mxGeometry x="454" y="470" width="52" height="50" as="geometry" />
        </mxCell>
        <mxCell id="AjZ5n-M7ejd30T08TzAp-10" value="" style="endArrow=none;html=1;entryX=0;entryY=0.5;entryDx=0;entryDy=0;entryPerimeter=0;" parent="1" edge="1">
          <mxGeometry width="50" height="50" relative="1" as="geometry">
            <mxPoint x="320" y="320" as="sourcePoint" />
            <mxPoint x="320" y="350" as="targetPoint" />
          </mxGeometry>
        </mxCell>
        <mxCell id="AjZ5n-M7ejd30T08TzAp-11" value="" style="endArrow=none;html=1;exitX=1;exitY=0.5;exitDx=0;exitDy=0;exitPerimeter=0;entryX=0.5;entryY=0;entryDx=0;entryDy=0;entryPerimeter=0;rounded=0;" parent="1" target="AjZ5n-M7ejd30T08TzAp-9" edge="1">
          <mxGeometry width="50" height="50" relative="1" as="geometry">
            <mxPoint x="320" y="450" as="sourcePoint" />
            <mxPoint x="480" y="440" as="targetPoint" />
            <Array as="points">
              <mxPoint x="320" y="470" />
            </Array>
          </mxGeometry>
        </mxCell>
        <mxCell id="AjZ5n-M7ejd30T08TzAp-12" value="" style="endArrow=none;html=1;exitX=1;exitY=0.5;exitDx=0;exitDy=0;exitPerimeter=0;entryX=0.5;entryY=0;entryDx=0;entryDy=0;entryPerimeter=0;rounded=0;" parent="1" source="AjZ5n-M7ejd30T08TzAp-8" target="AjZ5n-M7ejd30T08TzAp-9" edge="1">
          <mxGeometry width="50" height="50" relative="1" as="geometry">
            <mxPoint x="430" y="490" as="sourcePoint" />
            <mxPoint x="480" y="440" as="targetPoint" />
            <Array as="points">
              <mxPoint x="640" y="470" />
            </Array>
          </mxGeometry>
        </mxCell>
        <mxCell id="AjZ5n-M7ejd30T08TzAp-13" value="" style="endArrow=none;html=1;entryX=0;entryY=0.5;entryDx=0;entryDy=0;entryPerimeter=0;" parent="1" target="AjZ5n-M7ejd30T08TzAp-8" edge="1">
          <mxGeometry width="50" height="50" relative="1" as="geometry">
            <mxPoint x="640" y="320" as="sourcePoint" />
            <mxPoint x="480" y="440" as="targetPoint" />
          </mxGeometry>
        </mxCell>
        <mxCell id="AjZ5n-M7ejd30T08TzAp-15" value="&lt;font style=&quot;font-size: 14px&quot;&gt;0.3 uF =&amp;nbsp; &lt;br&gt;&lt;/font&gt;" style="text;html=1;align=center;verticalAlign=middle;resizable=0;points=[];autosize=1;" parent="1" vertex="1">
          <mxGeometry x="140" y="385" width="70" height="20" as="geometry" />
        </mxCell>
        <mxCell id="AjZ5n-M7ejd30T08TzAp-16" value="&lt;font style=&quot;font-size: 14px&quot;&gt;0.1 uF&lt;br&gt;&lt;/font&gt;" style="text;html=1;align=center;verticalAlign=middle;resizable=0;points=[];autosize=1;" parent="1" vertex="1">
          <mxGeometry x="660" y="415" width="60" height="20" as="geometry" />
        </mxCell>
        <mxCell id="AjZ5n-M7ejd30T08TzAp-17" value="" style="pointerEvents=1;verticalLabelPosition=bottom;shadow=0;dashed=0;align=center;html=1;verticalAlign=top;shape=mxgraph.electrical.capacitors.capacitor_1;rotation=90;" parent="1" vertex="1">
          <mxGeometry x="190" y="365" width="100" height="60" as="geometry" />
        </mxCell>
        <mxCell id="AjZ5n-M7ejd30T08TzAp-18" value="" style="pointerEvents=1;verticalLabelPosition=bottom;shadow=0;dashed=0;align=center;html=1;verticalAlign=top;shape=mxgraph.electrical.capacitors.capacitor_1;rotation=90;" parent="1" vertex="1">
          <mxGeometry x="270" y="365" width="100" height="60" as="geometry" />
        </mxCell>
        <mxCell id="AjZ5n-M7ejd30T08TzAp-19" value="" style="pointerEvents=1;verticalLabelPosition=bottom;shadow=0;dashed=0;align=center;html=1;verticalAlign=top;shape=mxgraph.electrical.capacitors.capacitor_1;rotation=90;" parent="1" vertex="1">
          <mxGeometry x="350" y="365" width="100" height="60" as="geometry" />
        </mxCell>
        <mxCell id="AjZ5n-M7ejd30T08TzAp-20" value="" style="endArrow=none;html=1;exitX=1;exitY=0.5;exitDx=0;exitDy=0;exitPerimeter=0;entryX=1;entryY=0.5;entryDx=0;entryDy=0;entryPerimeter=0;" parent="1" source="AjZ5n-M7ejd30T08TzAp-18" target="AjZ5n-M7ejd30T08TzAp-17" edge="1">
          <mxGeometry width="50" height="50" relative="1" as="geometry">
            <mxPoint x="310" y="335" as="sourcePoint" />
            <mxPoint x="360" y="285" as="targetPoint" />
          </mxGeometry>
        </mxCell>
        <mxCell id="AjZ5n-M7ejd30T08TzAp-21" value="" style="endArrow=none;html=1;entryX=1;entryY=0.5;entryDx=0;entryDy=0;entryPerimeter=0;exitX=1;exitY=0.5;exitDx=0;exitDy=0;exitPerimeter=0;" parent="1" source="AjZ5n-M7ejd30T08TzAp-18" target="AjZ5n-M7ejd30T08TzAp-19" edge="1">
          <mxGeometry width="50" height="50" relative="1" as="geometry">
            <mxPoint x="310" y="335" as="sourcePoint" />
            <mxPoint x="360" y="285" as="targetPoint" />
          </mxGeometry>
        </mxCell>
        <mxCell id="AjZ5n-M7ejd30T08TzAp-22" value="" style="endArrow=none;html=1;entryX=0;entryY=0.5;entryDx=0;entryDy=0;entryPerimeter=0;exitX=0;exitY=0.5;exitDx=0;exitDy=0;exitPerimeter=0;" parent="1" source="AjZ5n-M7ejd30T08TzAp-18" target="AjZ5n-M7ejd30T08TzAp-19" edge="1">
          <mxGeometry width="50" height="50" relative="1" as="geometry">
            <mxPoint x="310" y="335" as="sourcePoint" />
            <mxPoint x="360" y="285" as="targetPoint" />
          </mxGeometry>
        </mxCell>
        <mxCell id="AjZ5n-M7ejd30T08TzAp-23" value="" style="endArrow=none;html=1;exitX=0;exitY=0.5;exitDx=0;exitDy=0;exitPerimeter=0;entryX=0;entryY=0.5;entryDx=0;entryDy=0;entryPerimeter=0;" parent="1" source="AjZ5n-M7ejd30T08TzAp-17" target="AjZ5n-M7ejd30T08TzAp-18" edge="1">
          <mxGeometry width="50" height="50" relative="1" as="geometry">
            <mxPoint x="310" y="335" as="sourcePoint" />
            <mxPoint x="360" y="285" as="targetPoint" />
          </mxGeometry>
        </mxCell>
        <mxCell id="AjZ5n-M7ejd30T08TzAp-24" value="" style="endArrow=none;html=1;" parent="1" edge="1">
          <mxGeometry width="50" height="50" relative="1" as="geometry">
            <mxPoint x="320" y="445" as="sourcePoint" />
            <mxPoint x="320" y="470" as="targetPoint" />
          </mxGeometry>
        </mxCell>
        <mxCell id="AjZ5n-M7ejd30T08TzAp-25" value="" style="endArrow=none;html=1;" parent="1" edge="1">
          <mxGeometry width="50" height="50" relative="1" as="geometry">
            <mxPoint x="320" y="345" as="sourcePoint" />
            <mxPoint x="320" y="320" as="targetPoint" />
          </mxGeometry>
        </mxCell>
        <mxCell id="AjZ5n-M7ejd30T08TzAp-26" value="&lt;font style=&quot;font-size: 14px&quot;&gt;0.1 uF&lt;br&gt;&lt;/font&gt;" style="text;html=1;align=center;verticalAlign=middle;resizable=0;points=[];autosize=1;" parent="1" vertex="1">
          <mxGeometry x="410" y="405" width="60" height="20" as="geometry" />
        </mxCell>
        <mxCell id="AjZ5n-M7ejd30T08TzAp-27" value="&lt;font style=&quot;font-size: 14px&quot;&gt;0.1 uF&lt;br&gt;&lt;/font&gt;" style="text;html=1;align=center;verticalAlign=middle;resizable=0;points=[];autosize=1;" parent="1" vertex="1">
          <mxGeometry x="320" y="405" width="60" height="20" as="geometry" />
        </mxCell>
        <mxCell id="AjZ5n-M7ejd30T08TzAp-28" value="&lt;font style=&quot;font-size: 14px&quot;&gt;0.1 uF&lt;br&gt;&lt;/font&gt;" style="text;html=1;align=center;verticalAlign=middle;resizable=0;points=[];autosize=1;" parent="1" vertex="1">
          <mxGeometry x="240" y="405" width="60" height="20" as="geometry" />
        </mxCell>
      </root>
    </mxGraphModel>
  </diagram>
</mxfile>
